<svg xmlns="http://www.w3.org/2000/svg" xmlns:xlink="http://www.w3.org/1999/xlink" width="1440" zoomAndPan="magnify" viewBox="0 0 1080 607.499987" height="810" preserveAspectRatio="xMidYMid meet" version="1.0"><defs><clipPath id="134e507c13"><path d="M 0.445312 0 L 1079.554688 0 L 1079.554688 607 L 0.445312 607 Z M 0.445312 0 " clip-rule="nonzero"/></clipPath><clipPath id="752211a440"><path d="M 1028 0 L 1079.554688 0 L 1079.554688 143 L 1028 143 Z M 1028 0 " clip-rule="nonzero"/></clipPath><clipPath id="5bb910b3a6"><path d="M 0.785156 168.234375 L 101.609375 168.234375 L 101.609375 424.898438 L 0.785156 424.898438 Z M 0.785156 168.234375 " clip-rule="nonzero"/></clipPath><clipPath id="521d2da27d"><path d="M 0.445312 0 L 101 0 L 101 171 L 0.445312 171 Z M 0.445312 0 " clip-rule="nonzero"/></clipPath><clipPath id="c3eaabffb0"><path d="M 978 139 L 1079.554688 139 L 1079.554688 256 L 978 256 Z M 978 139 " clip-rule="nonzero"/></clipPath></defs><g clip-path="url(#134e507c13)"><path fill="#ffffff" d="M 0.445312 0 L 1079.554688 0 L 1079.554688 607 L 0.445312 607 Z M 0.445312 0 " fill-opacity="1" fill-rule="nonzero"/><path fill="#ffffff" d="M 0.445312 0 L 1079.554688 0 L 1079.554688 607 L 0.445312 607 Z M 0.445312 0 " fill-opacity="1" fill-rule="nonzero"/><rect x="-108" width="1296" fill="#2a2a2a" y="-60.749999" height="728.999984" fill-opacity="1"/><rect x="-108" width="1296" fill="#2a2a2a" y="-60.749999" height="728.999984" fill-opacity="1"/></g><path fill="#01a84f" d="M 1077.234375 226.941406 L 1027.777344 198.378906 L 1027.777344 141.175781 L 1030.304688 141.175781 L 1030.304688 196.914062 L 1077.234375 224.011719 L 1077.234375 226.941406 " fill-opacity="1" fill-rule="nonzero"/><path fill="#01a84f" d="M 979.5 224.785156 L 1028.402344 196.550781 L 1029.671875 198.742188 L 980.773438 226.976562 L 979.5 224.785156 " fill-opacity="1" fill-rule="nonzero"/><path fill="#01a84f" d="M 1028.402344 196.550781 L 1077.277344 168.335938 L 1077.277344 171.261719 L 1029.671875 198.742188 L 1028.402344 196.550781 " fill-opacity="1" fill-rule="nonzero"/><g clip-path="url(#752211a440)"><path fill="#01a84f" d="M 1028.410156 140.078125 L 1076.667969 112.214844 L 1077.925781 0.015625 L 1079.214844 113.671875 L 1029.671875 142.277344 L 1028.410156 140.078125 " fill-opacity="1" fill-rule="nonzero"/></g><path fill="#01a84f" d="M 1029.042969 0.0078125 L 1030.304688 141.175781 L 1027.777344 141.175781 L 1029.042969 0.0078125 " fill-opacity="1" fill-rule="nonzero"/><path fill="#01a84f" d="M 978.871094 168.679688 L 980.132812 0.0078125 L 981.402344 169.414062 L 978.871094 168.679688 " fill-opacity="1" fill-rule="nonzero"/><path fill="#01a84f" d="M 883.597656 281.621094 L 931.234375 309.121094 L 978.859375 281.621094 L 978.859375 226.605469 L 883.597656 171.605469 Z M 930.601562 311.683594 L 881.058594 283.078125 C 881.019531 244.457031 881.046875 205.835938 881.058594 167.214844 C 914.5 186.535156 947.941406 205.859375 981.402344 225.15625 L 981.402344 283.078125 L 931.234375 312.042969 L 930.601562 311.683594 " fill-opacity="1" fill-rule="nonzero"/><path fill="#01a84f" d="M 980.773438 226.976562 L 931.867188 255.207031 L 930.601562 253.015625 L 979.5 224.785156 L 980.773438 226.976562 " fill-opacity="1" fill-rule="nonzero"/><path fill="#01a84f" d="M 882.957031 224.785156 L 931.867188 253.015625 L 930.601562 255.207031 L 881.699219 226.976562 L 882.957031 224.785156 " fill-opacity="1" fill-rule="nonzero"/><path fill="#01a84f" d="M 979.5 283.449219 L 930.601562 255.207031 L 931.867188 253.015625 L 980.773438 281.25 L 979.5 283.449219 " fill-opacity="1" fill-rule="nonzero"/><path fill="#01a84f" d="M 881.691406 281.25 L 930.601562 253.015625 L 931.867188 255.207031 L 882.964844 283.449219 L 881.691406 281.25 " fill-opacity="1" fill-rule="nonzero"/><path fill="#01a84f" d="M 929.96875 254.113281 L 929.96875 197.648438 L 932.5 197.648438 L 932.5 254.113281 L 929.96875 254.113281 " fill-opacity="1" fill-rule="nonzero"/><path fill="#01a84f" d="M 929.96875 197.648438 L 931.234375 0.0078125 L 932.5 197.648438 L 929.96875 197.648438 " fill-opacity="1" fill-rule="nonzero"/><path fill="#01a84f" d="M 787.054688 169.414062 L 833.425781 196.1875 L 879.796875 169.414062 L 833.425781 142.636719 Z M 832.792969 198.742188 L 781.988281 169.414062 L 833.425781 139.714844 L 884.859375 169.414062 L 833.425781 199.105469 L 832.792969 198.742188 " fill-opacity="1" fill-rule="nonzero"/><path fill="#01a84f" d="M 881.058594 169.414062 L 881.058594 112.941406 L 883.597656 112.941406 L 883.597656 169.414062 L 881.058594 169.414062 " fill-opacity="1" fill-rule="nonzero"/><path fill="#01a84f" d="M 832.785156 140.078125 L 881.691406 111.84375 L 882.964844 114.035156 L 834.058594 142.277344 L 832.785156 140.078125 " fill-opacity="1" fill-rule="nonzero"/><path fill="#01a84f" d="M 785.148438 226.976562 L 735.617188 255.578125 C 718.882812 245.933594 702.167969 236.269531 685.445312 226.613281 L 685.445312 168.679688 C 702.167969 159.042969 718.882812 149.371094 735.617188 139.714844 C 752.332031 149.386719 769.054688 159.042969 785.789062 168.679688 C 785.789062 187.992188 785.769531 207.300781 785.789062 226.613281 Z M 735.617188 252.65625 L 783.246094 225.15625 L 783.246094 170.140625 L 735.617188 142.636719 L 687.980469 170.140625 L 687.980469 225.15625 L 735.617188 252.65625 " fill-opacity="1" fill-rule="nonzero"/><path fill="#01a84f" d="M 686.085938 224.785156 L 734.984375 196.550781 L 736.246094 198.742188 L 687.339844 226.976562 L 686.085938 224.785156 " fill-opacity="1" fill-rule="nonzero"/><path fill="#01a84f" d="M 783.882812 226.976562 L 734.984375 198.742188 L 736.246094 196.550781 L 785.15625 224.785156 L 783.882812 226.976562 " fill-opacity="1" fill-rule="nonzero"/><path fill="#01a84f" d="M 734.976562 198.742188 L 686.078125 170.507812 L 687.347656 168.308594 L 736.246094 196.550781 L 734.976562 198.742188 " fill-opacity="1" fill-rule="nonzero"/><path fill="#01a84f" d="M 734.976562 196.550781 L 783.882812 168.308594 L 785.15625 170.507812 L 736.246094 198.742188 L 734.976562 196.550781 " fill-opacity="1" fill-rule="nonzero"/><path fill="#01a84f" d="M 734.355469 197.648438 L 734.355469 141.183594 L 736.878906 141.183594 L 736.878906 197.648438 L 734.355469 197.648438 " fill-opacity="1" fill-rule="nonzero"/><path fill="#01a84f" d="M 832.152344 141.183594 L 833.425781 0.0078125 L 834.6875 141.183594 L 832.152344 141.183594 " fill-opacity="1" fill-rule="nonzero"/><path fill="#01a84f" d="M 734.976562 140.078125 L 783.882812 111.84375 L 785.15625 114.042969 L 736.246094 142.277344 L 734.976562 140.078125 " fill-opacity="1" fill-rule="nonzero"/><path fill="#01a84f" d="M 588.277344 111.84375 L 637.808594 83.25 C 654.523438 92.910156 671.257812 102.570312 687.980469 112.214844 L 687.980469 170.140625 C 671.265625 179.800781 654.53125 189.449219 637.808594 199.113281 C 621.085938 189.457031 604.359375 179.792969 587.636719 170.140625 L 587.636719 112.214844 Z M 637.808594 86.164062 L 590.171875 113.671875 L 590.171875 168.691406 L 637.808594 196.1875 L 685.445312 168.679688 L 685.445312 113.671875 L 637.808594 86.164062 " fill-opacity="1" fill-rule="nonzero"/><path fill="#01a84f" d="M 686.085938 170.507812 L 636.542969 141.90625 L 636.542969 84.707031 L 639.070312 84.707031 L 639.070312 140.449219 L 687.339844 168.308594 L 686.085938 170.507812 " fill-opacity="1" fill-rule="nonzero"/><path fill="#01a84f" d="M 686.078125 111.84375 L 735.617188 83.238281 C 752.332031 92.90625 769.054688 102.558594 785.78125 112.207031 L 785.78125 169.414062 L 783.253906 169.414062 L 783.253906 113.671875 L 735.617188 86.171875 L 687.347656 114.035156 L 686.078125 111.84375 " fill-opacity="1" fill-rule="nonzero"/><path fill="#01a84f" d="M 685.445312 112.941406 L 686.710938 0 L 687.980469 112.941406 L 685.445312 112.941406 " fill-opacity="1" fill-rule="nonzero"/><path fill="#01a84f" d="M 587.636719 112.941406 L 588.910156 0.0078125 L 590.171875 112.941406 L 587.636719 112.941406 " fill-opacity="1" fill-rule="nonzero"/><path fill="#01a84f" d="M 590.171875 169.414062 L 590.171875 281.621094 L 637.808594 309.121094 L 685.445312 281.621094 L 685.445312 225.878906 L 687.980469 225.878906 L 687.980469 283.078125 L 637.808594 312.054688 C 621.085938 302.398438 604.351562 292.75 587.644531 283.089844 L 587.636719 169.414062 L 590.171875 169.414062 " fill-opacity="1" fill-rule="nonzero"/><path fill="#01a84f" d="M 686.085938 283.449219 L 637.175781 255.21875 L 638.441406 253.015625 L 687.339844 281.25 L 686.085938 283.449219 " fill-opacity="1" fill-rule="nonzero"/><path fill="#01a84f" d="M 588.277344 281.25 L 637.175781 253.015625 L 638.441406 255.21875 L 589.542969 283.449219 L 588.277344 281.25 " fill-opacity="1" fill-rule="nonzero"/><path fill="#01a84f" d="M 637.175781 253.015625 L 686.078125 224.785156 L 687.347656 226.984375 L 638.441406 255.21875 L 637.175781 253.015625 " fill-opacity="1" fill-rule="nonzero"/><path fill="#01a84f" d="M 636.542969 254.121094 L 636.542969 197.648438 L 639.070312 197.648438 L 639.070312 254.121094 L 636.542969 254.121094 " fill-opacity="1" fill-rule="nonzero"/><path fill="#01a84f" d="M 492.363281 282.355469 L 492.363281 338.09375 L 540 365.597656 L 587.636719 338.09375 L 587.636719 282.355469 L 590.171875 282.355469 L 590.171875 339.550781 C 573.457031 349.207031 556.730469 358.871094 540 368.519531 C 523.269531 358.871094 506.554688 349.207031 489.828125 339.550781 L 489.828125 282.355469 L 492.363281 282.355469 " fill-opacity="1" fill-rule="nonzero"/><path fill="#01a84f" d="M 490.457031 337.726562 L 539.367188 309.492188 L 540.640625 311.691406 L 491.730469 339.925781 L 490.457031 337.726562 " fill-opacity="1" fill-rule="nonzero"/><path fill="#01a84f" d="M 588.269531 339.925781 L 539.367188 311.691406 L 540.640625 309.492188 L 589.542969 337.726562 L 588.269531 339.925781 " fill-opacity="1" fill-rule="nonzero"/><path fill="#01a84f" d="M 539.367188 311.691406 L 490.46875 283.449219 L 491.722656 281.25 L 540.632812 309.492188 L 539.367188 311.691406 " fill-opacity="1" fill-rule="nonzero"/><path fill="#01a84f" d="M 539.367188 309.492188 L 588.277344 281.25 L 589.542969 283.449219 L 540.632812 311.691406 L 539.367188 309.492188 " fill-opacity="1" fill-rule="nonzero"/><path fill="#01a84f" d="M 538.734375 310.585938 L 538.734375 254.121094 L 541.265625 254.121094 L 541.273438 310.585938 L 538.734375 310.585938 " fill-opacity="1" fill-rule="nonzero"/><path fill="#01a84f" d="M 443.457031 254.121094 L 443.457031 366.328125 L 491.089844 393.828125 L 539.367188 365.957031 L 540.632812 368.15625 L 491.089844 396.75 C 474.367188 387.105469 457.644531 377.449219 440.921875 367.785156 L 440.929688 254.121094 L 443.457031 254.121094 " fill-opacity="1" fill-rule="nonzero"/><path fill="#01a84f" d="M 441.550781 365.957031 L 490.457031 337.726562 L 491.730469 339.925781 L 442.824219 368.15625 L 441.550781 365.957031 " fill-opacity="1" fill-rule="nonzero"/><path fill="#01a84f" d="M 540.632812 255.21875 L 489.828125 284.546875 C 489.820312 264.746094 489.8125 244.953125 489.828125 225.15625 L 541.273438 195.449219 L 541.273438 254.847656 Z M 492.363281 280.164062 L 538.726562 253.398438 L 538.726562 199.84375 L 492.363281 226.613281 L 492.363281 280.164062 " fill-opacity="1" fill-rule="nonzero"/><path fill="#01a84f" d="M 539.367188 253.015625 L 588.277344 224.785156 L 589.542969 226.984375 L 540.632812 255.21875 L 539.367188 253.015625 " fill-opacity="1" fill-rule="nonzero"/><path fill="#01a84f" d="M 588.269531 226.984375 L 539.367188 198.75 L 540.640625 196.550781 L 589.542969 224.785156 L 588.269531 226.984375 " fill-opacity="1" fill-rule="nonzero"/><path fill="#01a84f" d="M 539.367188 196.550781 L 588.277344 168.320312 L 589.542969 170.507812 L 540.632812 198.75 L 539.367188 196.550781 " fill-opacity="1" fill-rule="nonzero"/><path fill="#01a84f" d="M 588.269531 170.507812 L 539.367188 142.277344 L 540.640625 140.078125 L 589.542969 168.308594 L 588.269531 170.507812 " fill-opacity="1" fill-rule="nonzero"/><path fill="#01a84f" d="M 539.367188 140.078125 L 588.277344 111.84375 L 589.53125 114.035156 L 540.632812 142.277344 L 539.367188 140.078125 " fill-opacity="1" fill-rule="nonzero"/><path fill="#01a84f" d="M 538.734375 197.648438 L 538.734375 141.183594 L 541.265625 141.183594 L 541.265625 197.648438 L 538.734375 197.648438 " fill-opacity="1" fill-rule="nonzero"/><path fill="#01a84f" d="M 489.828125 169.414062 L 491.089844 0.0078125 L 492.363281 169.414062 L 491.042969 170.457031 L 489.828125 169.414062 " fill-opacity="1" fill-rule="nonzero"/><path fill="#01a84f" d="M 538.734375 141.183594 L 540 0 L 541.265625 141.175781 L 539.890625 142.300781 L 538.734375 141.183594 " fill-opacity="1" fill-rule="nonzero"/><path fill="#01a84f" d="M 490.457031 283.449219 L 441.550781 255.21875 L 442.832031 253.015625 L 491.730469 281.25 L 490.457031 283.449219 " fill-opacity="1" fill-rule="nonzero"/><path fill="#01a84f" d="M 441.550781 253.015625 L 490.457031 224.785156 L 491.730469 226.984375 L 442.832031 255.21875 L 441.550781 253.015625 " fill-opacity="1" fill-rule="nonzero"/><path fill="#01a84f" d="M 346.917969 254.121094 L 393.289062 280.886719 L 439.664062 254.121094 L 393.289062 227.347656 Z M 392.660156 283.449219 L 341.855469 254.113281 L 393.289062 224.421875 C 410.429688 234.332031 427.582031 244.222656 444.730469 254.113281 L 393.289062 283.8125 L 392.660156 283.449219 " fill-opacity="1" fill-rule="nonzero"/><path fill="#01a84f" d="M 440.929688 254.121094 L 440.921875 84.707031 L 443.457031 84.707031 L 443.457031 254.121094 L 440.929688 254.121094 " fill-opacity="1" fill-rule="nonzero"/><path fill="#01a84f" d="M 343.121094 254.121094 L 343.121094 84.714844 L 345.644531 84.714844 L 345.65625 254.121094 L 343.121094 254.121094 " fill-opacity="1" fill-rule="nonzero"/><path fill="#01a84f" d="M 490.457031 226.984375 L 441.550781 198.75 L 442.832031 196.550781 L 491.730469 224.785156 L 490.457031 226.984375 " fill-opacity="1" fill-rule="nonzero"/><path fill="#01a84f" d="M 392.660156 224.785156 L 441.558594 196.550781 L 442.824219 198.75 L 393.914062 226.984375 L 392.660156 224.785156 " fill-opacity="1" fill-rule="nonzero"/><path fill="#01a84f" d="M 441.558594 196.550781 L 490.46875 168.320312 L 491.722656 170.507812 L 442.824219 198.75 L 441.558594 196.550781 " fill-opacity="1" fill-rule="nonzero"/><path fill="#01a84f" d="M 441.558594 198.75 L 343.753906 142.277344 L 345.015625 140.078125 L 442.824219 196.550781 L 441.558594 198.75 " fill-opacity="1" fill-rule="nonzero"/><path fill="#01a84f" d="M 343.753906 140.078125 L 441.558594 83.613281 L 442.824219 85.800781 L 345.015625 142.277344 L 343.753906 140.078125 " fill-opacity="1" fill-rule="nonzero"/><path fill="#01a84f" d="M 345.015625 311.691406 L 295.484375 340.289062 C 278.753906 330.640625 262.027344 320.984375 245.3125 311.320312 C 245.277344 272.699219 245.3125 234.078125 245.3125 195.457031 C 278.761719 214.765625 312.199219 234.101562 345.65625 253.386719 L 345.65625 311.320312 Z M 295.484375 337.363281 L 343.121094 309.859375 L 343.121094 254.847656 L 247.839844 199.835938 L 247.839844 309.855469 L 295.484375 337.363281 " fill-opacity="1" fill-rule="nonzero"/><path fill="#01a84f" d="M 245.941406 309.492188 L 294.851562 281.25 L 296.117188 283.449219 L 247.207031 311.691406 L 245.941406 309.492188 " fill-opacity="1" fill-rule="nonzero"/><path fill="#01a84f" d="M 343.753906 311.691406 L 294.851562 283.449219 L 296.117188 281.25 L 345.023438 309.492188 L 343.753906 311.691406 " fill-opacity="1" fill-rule="nonzero"/><path fill="#01a84f" d="M 294.21875 282.355469 L 294.21875 225.878906 L 296.746094 225.878906 L 296.746094 282.355469 L 294.21875 282.355469 " fill-opacity="1" fill-rule="nonzero"/><path fill="#01a84f" d="M 245.941406 196.550781 L 343.753906 140.078125 L 345.023438 142.277344 L 247.214844 198.75 L 245.941406 196.550781 " fill-opacity="1" fill-rule="nonzero"/><path fill="#01a84f" d="M 294.21875 225.878906 L 294.21875 169.414062 L 296.746094 169.414062 L 296.746094 225.878906 L 294.21875 225.878906 " fill-opacity="1" fill-rule="nonzero"/><path fill="#01a84f" d="M 294.21875 169.414062 L 294.21875 112.949219 L 296.746094 112.949219 L 296.746094 169.414062 L 294.21875 169.414062 " fill-opacity="1" fill-rule="nonzero"/><path fill="#01a84f" d="M 294.84375 111.84375 L 343.753906 83.613281 L 345.023438 85.800781 L 296.117188 114.042969 L 294.84375 111.84375 " fill-opacity="1" fill-rule="nonzero"/><path fill="#01a84f" d="M 245.941406 140.078125 L 294.851562 111.84375 L 296.117188 114.042969 L 247.207031 142.277344 L 245.941406 140.078125 " fill-opacity="1" fill-rule="nonzero"/><path fill="#01a84f" d="M 245.3125 197.648438 L 245.3125 84.707031 L 247.839844 84.707031 L 247.839844 197.648438 L 245.3125 197.648438 " fill-opacity="1" fill-rule="nonzero"/><path fill="#01a84f" d="M 294.21875 112.949219 L 295.484375 0.0078125 L 296.746094 112.949219 L 294.21875 112.949219 " fill-opacity="1" fill-rule="nonzero"/><path fill="#01a84f" d="M 150.039062 254.121094 L 150.039062 309.859375 L 197.667969 337.363281 L 245.941406 309.492188 L 247.207031 311.691406 L 197.667969 340.289062 C 180.941406 330.640625 164.226562 320.976562 147.5 311.320312 L 147.5 254.121094 L 150.039062 254.121094 " fill-opacity="1" fill-rule="nonzero"/><path fill="#01a84f" d="M 101.128906 225.878906 L 101.128906 338.09375 L 148.765625 365.597656 L 197.042969 337.726562 L 198.308594 339.925781 L 148.765625 368.519531 L 98.597656 339.550781 L 98.597656 225.878906 L 101.128906 225.878906 " fill-opacity="1" fill-rule="nonzero"/><g clip-path="url(#5bb910b3a6)"><path fill="#01a84f" d="M 3.320312 394.5625 L 50.964844 422.070312 L 98.597656 394.570312 L 98.597656 338.820312 L 101.140625 338.820312 L 101.140625 396.019531 C 84.40625 405.683594 67.691406 415.335938 50.964844 424.984375 C 35.5 416.070312 16.238281 404.957031 0.785156 396.019531 L 0.785156 225.164062 L 99.234375 168.308594 L 100.5 170.507812 L 3.320312 226.621094 L 3.320312 394.5625 " fill-opacity="1" fill-rule="nonzero"/></g><path fill="#01a84f" d="M 2.640625 393.492188 L 50.328125 365.964844 L 51.589844 368.15625 L 2.640625 396.421875 L 2.640625 393.492188 " fill-opacity="1" fill-rule="nonzero"/><path fill="#01a84f" d="M 99.234375 396.386719 L 50.328125 368.15625 L 51.589844 365.964844 L 100.488281 394.191406 L 99.234375 396.386719 " fill-opacity="1" fill-rule="nonzero"/><path fill="#01a84f" d="M 49.695312 367.058594 L 49.695312 310.585938 L 52.222656 310.585938 L 52.222656 367.058594 L 49.695312 367.058594 " fill-opacity="1" fill-rule="nonzero"/><path fill="#01a84f" d="M 245.941406 311.691406 L 148.132812 255.21875 L 149.40625 253.015625 L 247.214844 309.492188 L 245.941406 311.691406 " fill-opacity="1" fill-rule="nonzero"/><path fill="#01a84f" d="M 99.234375 337.726562 L 197.035156 281.25 L 198.308594 283.449219 L 100.5 339.925781 L 99.234375 337.726562 " fill-opacity="1" fill-rule="nonzero"/><path fill="#01a84f" d="M 196.402344 282.34375 L 196.402344 225.878906 L 198.929688 225.878906 L 198.941406 282.34375 L 196.402344 282.34375 " fill-opacity="1" fill-rule="nonzero"/><path fill="#01a84f" d="M 148.132812 253.015625 L 245.941406 196.550781 L 247.214844 198.742188 L 149.40625 255.21875 L 148.132812 253.015625 " fill-opacity="1" fill-rule="nonzero"/><path fill="#01a84f" d="M 245.941406 198.742188 L 148.132812 142.277344 L 149.40625 140.078125 L 247.214844 196.550781 L 245.941406 198.742188 " fill-opacity="1" fill-rule="nonzero"/><path fill="#01a84f" d="M 147.5 254.121094 L 147.5 141.183594 L 150.039062 141.183594 L 150.039062 254.121094 L 147.5 254.121094 " fill-opacity="1" fill-rule="nonzero"/><path fill="#01a84f" d="M 197.035156 168.320312 L 245.941406 140.078125 L 247.207031 142.277344 L 198.308594 170.507812 L 197.035156 168.320312 " fill-opacity="1" fill-rule="nonzero"/><path fill="#01a84f" d="M 196.402344 225.878906 L 196.402344 169.414062 L 198.929688 169.414062 L 198.929688 225.878906 L 196.402344 225.878906 " fill-opacity="1" fill-rule="nonzero"/><path fill="#01a84f" d="M 148.132812 140.078125 L 246.574219 83.25 L 345.023438 140.078125 L 343.753906 142.277344 L 246.574219 86.171875 L 149.40625 142.277344 L 148.132812 140.078125 " fill-opacity="1" fill-rule="nonzero"/><path fill="#01a84f" d="M 196.402344 169.414062 L 196.402344 112.941406 L 198.929688 112.941406 L 198.929688 169.414062 L 196.402344 169.414062 " fill-opacity="1" fill-rule="nonzero"/><path fill="#01a84f" d="M 148.132812 311.691406 L 99.234375 283.449219 L 100.5 281.25 L 149.40625 309.492188 L 148.132812 311.691406 " fill-opacity="1" fill-rule="nonzero"/><path fill="#01a84f" d="M 50.328125 365.964844 L 99.234375 337.726562 L 100.488281 339.925781 L 51.589844 368.15625 L 50.328125 365.964844 " fill-opacity="1" fill-rule="nonzero"/><path fill="#01a84f" d="M 50.328125 309.492188 L 99.234375 281.25 L 100.5 283.449219 L 51.597656 311.691406 L 50.328125 309.492188 " fill-opacity="1" fill-rule="nonzero"/><path fill="#01a84f" d="M 50.328125 311.691406 L 2.035156 283.800781 L 2.035156 280.882812 L 51.589844 309.492188 L 50.328125 311.691406 " fill-opacity="1" fill-rule="nonzero"/><path fill="#01a84f" d="M 99.234375 283.449219 L 2.640625 227.683594 L 2.640625 224.757812 L 100.5 281.25 L 99.234375 283.449219 " fill-opacity="1" fill-rule="nonzero"/><path fill="#01a84f" d="M 99.234375 224.785156 L 148.132812 196.550781 L 149.40625 198.75 L 100.5 226.984375 L 99.234375 224.785156 " fill-opacity="1" fill-rule="nonzero"/><path fill="#01a84f" d="M 98.597656 225.878906 L 98.597656 112.941406 L 101.128906 112.941406 L 101.128906 225.878906 L 98.597656 225.878906 " fill-opacity="1" fill-rule="nonzero"/><path fill="#01a84f" d="M 148.132812 198.75 L 99.234375 170.507812 L 100.5 168.320312 L 149.40625 196.550781 L 148.132812 198.75 " fill-opacity="1" fill-rule="nonzero"/><path fill="#01a84f" d="M 99.234375 168.320312 L 148.132812 140.078125 L 149.40625 142.277344 L 100.5 170.507812 L 99.234375 168.320312 " fill-opacity="1" fill-rule="nonzero"/><path fill="#01a84f" d="M 49.695312 254.121094 L 49.695312 197.648438 L 52.230469 197.648438 L 52.230469 254.121094 L 49.695312 254.121094 " fill-opacity="1" fill-rule="nonzero"/><path fill="#01a84f" d="M 49.695312 197.648438 L 49.695312 141.183594 L 52.222656 141.183594 L 52.230469 197.648438 L 49.695312 197.648438 " fill-opacity="1" fill-rule="nonzero"/><g clip-path="url(#521d2da27d)"><path fill="#01a84f" d="M 99.234375 170.507812 L 0.785156 113.671875 L 2.050781 0 L 3.308594 112.199219 L 100.5 168.308594 L 99.234375 170.507812 " fill-opacity="1" fill-rule="nonzero"/></g><path fill="#01a84f" d="M 50.328125 140.078125 L 99.234375 111.84375 L 100.5 114.042969 L 51.597656 142.277344 L 50.328125 140.078125 " fill-opacity="1" fill-rule="nonzero"/><path fill="#01a84f" d="M 881.058594 112.941406 L 882.324219 0.0078125 L 883.597656 112.941406 L 882.15625 113.882812 L 881.058594 112.941406 " fill-opacity="1" fill-rule="nonzero"/><path fill="#01a84f" d="M 489.828125 225.878906 L 489.828125 169.414062 L 492.363281 169.414062 L 492.363281 225.878906 L 489.828125 225.878906 " fill-opacity="1" fill-rule="nonzero"/><path fill="#01a84f" d="M 440.921875 84.707031 L 442.191406 0.0078125 L 443.457031 84.707031 L 442.175781 85.667969 L 440.921875 84.707031 " fill-opacity="1" fill-rule="nonzero"/><path fill="#01a84f" d="M 343.121094 84.714844 L 344.382812 0.0078125 L 345.644531 84.714844 L 344.300781 85.558594 L 343.121094 84.714844 " fill-opacity="1" fill-rule="nonzero"/><path fill="#01a84f" d="M 147.5 141.183594 L 148.765625 0.0078125 L 150.039062 141.183594 L 147.5 141.183594 " fill-opacity="1" fill-rule="nonzero"/><path fill="#01a84f" d="M 98.597656 112.941406 L 99.867188 0.0078125 L 101.128906 112.941406 L 99.765625 113.992188 L 98.597656 112.941406 " fill-opacity="1" fill-rule="nonzero"/><path fill="#01a84f" d="M 49.695312 141.183594 L 50.964844 0.0078125 L 52.222656 141.183594 L 49.695312 141.183594 " fill-opacity="1" fill-rule="nonzero"/><g clip-path="url(#c3eaabffb0)"><path fill="#01a84f" d="M 1079.214844 226.605469 C 1063.753906 235.527344 1044.5 246.65625 1029.042969 255.578125 C 1012.308594 245.933594 995.582031 236.273438 978.871094 226.605469 C 978.851562 207.300781 978.851562 187.992188 978.871094 168.679688 L 979.5 168.308594 L 1029.042969 139.714844 C 1044.492188 148.648438 1063.753906 159.769531 1079.214844 168.679688 C 1079.214844 187.992188 1079.214844 207.300781 1079.214844 226.605469 Z M 1076.667969 225.15625 L 1076.667969 170.140625 L 1029.042969 142.636719 L 981.402344 170.148438 L 981.402344 225.15625 L 1029.042969 252.65625 L 1076.667969 225.15625 " fill-opacity="1" fill-rule="evenodd"/></g></svg>