<svg xmlns="http://www.w3.org/2000/svg" xmlns:xlink="http://www.w3.org/1999/xlink" width="1920" zoomAndPan="magnify" viewBox="0 0 1440 809.999993" height="1080" preserveAspectRatio="xMidYMid meet" version="1.0"><defs><clipPath id="562c0e1347"><path d="M 0.457031 224.496094 L 135 224.496094 L 135 567 L 0.457031 567 Z M 0.457031 224.496094 " clip-rule="nonzero"/></clipPath></defs><rect x="-144" width="1728" fill="#ffffff" y="-80.999999" height="971.999992" fill-opacity="1"/><rect x="-144" width="1728" fill="#ffffff" y="-80.999999" height="971.999992" fill-opacity="1"/><path fill="#01a84f" d="M 1436.902344 302.835938 L 1370.90625 264.722656 L 1370.90625 188.386719 L 1374.277344 188.386719 L 1374.277344 262.769531 L 1436.902344 298.925781 L 1436.902344 302.835938 " fill-opacity="1" fill-rule="nonzero"/><path fill="#01a84f" d="M 1306.484375 299.960938 L 1371.738281 262.285156 L 1373.433594 265.207031 L 1308.179688 302.882812 L 1306.484375 299.960938 " fill-opacity="1" fill-rule="nonzero"/><path fill="#01a84f" d="M 1371.738281 262.285156 L 1436.957031 224.632812 L 1436.957031 228.535156 L 1373.433594 265.207031 L 1371.738281 262.285156 " fill-opacity="1" fill-rule="nonzero"/><path fill="#01a84f" d="M 1371.75 186.925781 L 1436.148438 149.742188 L 1437.824219 0.0234375 L 1439.542969 151.6875 L 1373.433594 189.859375 L 1371.75 186.925781 " fill-opacity="1" fill-rule="nonzero"/><path fill="#01a84f" d="M 1372.59375 0.0117188 L 1374.277344 188.386719 L 1370.90625 188.386719 L 1372.59375 0.0117188 " fill-opacity="1" fill-rule="nonzero"/><path fill="#01a84f" d="M 1305.640625 225.09375 L 1307.328125 0.0117188 L 1309.023438 226.070312 L 1305.640625 225.09375 " fill-opacity="1" fill-rule="nonzero"/><path fill="#01a84f" d="M 1178.507812 375.804688 L 1242.074219 412.5 L 1305.628906 375.804688 L 1305.628906 302.386719 L 1178.507812 228.996094 Z M 1241.230469 415.917969 L 1175.121094 377.75 C 1175.066406 326.210938 1175.101562 274.675781 1175.121094 223.136719 C 1219.746094 248.917969 1264.367188 274.707031 1309.023438 300.453125 L 1309.023438 377.75 L 1242.074219 416.402344 L 1241.230469 415.917969 " fill-opacity="1" fill-rule="nonzero"/><path fill="#01a84f" d="M 1308.179688 302.882812 L 1242.917969 340.558594 L 1241.230469 337.632812 L 1306.484375 299.960938 L 1308.179688 302.882812 " fill-opacity="1" fill-rule="nonzero"/><path fill="#01a84f" d="M 1177.652344 299.960938 L 1242.917969 337.632812 L 1241.230469 340.558594 L 1175.976562 302.882812 L 1177.652344 299.960938 " fill-opacity="1" fill-rule="nonzero"/><path fill="#01a84f" d="M 1306.484375 378.242188 L 1241.230469 340.558594 L 1242.917969 337.632812 L 1308.179688 375.308594 L 1306.484375 378.242188 " fill-opacity="1" fill-rule="nonzero"/><path fill="#01a84f" d="M 1175.964844 375.308594 L 1241.230469 337.632812 L 1242.917969 340.558594 L 1177.664062 378.242188 L 1175.964844 375.308594 " fill-opacity="1" fill-rule="nonzero"/><path fill="#01a84f" d="M 1240.386719 339.097656 L 1240.386719 263.746094 L 1243.761719 263.746094 L 1243.761719 339.097656 L 1240.386719 339.097656 " fill-opacity="1" fill-rule="nonzero"/><path fill="#01a84f" d="M 1240.386719 263.746094 L 1242.074219 0.0117188 L 1243.761719 263.746094 L 1240.386719 263.746094 " fill-opacity="1" fill-rule="nonzero"/><path fill="#01a84f" d="M 1049.675781 226.070312 L 1111.554688 261.800781 L 1173.4375 226.070312 L 1111.554688 190.339844 Z M 1110.710938 265.207031 L 1042.917969 226.070312 L 1111.554688 186.441406 L 1180.191406 226.070312 L 1111.554688 265.691406 L 1110.710938 265.207031 " fill-opacity="1" fill-rule="nonzero"/><path fill="#01a84f" d="M 1175.121094 226.070312 L 1175.121094 150.710938 L 1178.507812 150.710938 L 1178.507812 226.070312 L 1175.121094 226.070312 " fill-opacity="1" fill-rule="nonzero"/><path fill="#01a84f" d="M 1110.699219 186.925781 L 1175.964844 149.25 L 1177.664062 152.171875 L 1112.398438 189.859375 L 1110.699219 186.925781 " fill-opacity="1" fill-rule="nonzero"/><path fill="#01a84f" d="M 1047.132812 302.882812 L 981.035156 341.050781 C 958.707031 328.179688 936.402344 315.285156 914.085938 302.398438 L 914.085938 225.09375 C 936.402344 212.230469 958.707031 199.324219 981.035156 186.441406 C 1003.34375 199.347656 1025.660156 212.230469 1047.988281 225.09375 C 1047.988281 250.863281 1047.964844 276.628906 1047.988281 302.398438 Z M 981.035156 337.152344 L 1044.59375 300.453125 L 1044.59375 227.039062 L 981.035156 190.339844 L 917.46875 227.039062 L 917.46875 300.453125 L 981.035156 337.152344 " fill-opacity="1" fill-rule="nonzero"/><path fill="#01a84f" d="M 914.941406 299.960938 L 980.195312 262.285156 L 981.878906 265.207031 L 916.613281 302.882812 L 914.941406 299.960938 " fill-opacity="1" fill-rule="nonzero"/><path fill="#01a84f" d="M 1045.445312 302.882812 L 980.195312 265.207031 L 981.878906 262.285156 L 1047.144531 299.960938 L 1045.445312 302.882812 " fill-opacity="1" fill-rule="nonzero"/><path fill="#01a84f" d="M 980.183594 265.207031 L 914.929688 227.53125 L 916.625 224.597656 L 981.878906 262.285156 L 980.183594 265.207031 " fill-opacity="1" fill-rule="nonzero"/><path fill="#01a84f" d="M 980.183594 262.285156 L 1045.445312 224.597656 L 1047.144531 227.53125 L 981.878906 265.207031 L 980.183594 262.285156 " fill-opacity="1" fill-rule="nonzero"/><path fill="#01a84f" d="M 979.351562 263.746094 L 979.351562 188.398438 L 982.722656 188.398438 L 982.722656 263.746094 L 979.351562 263.746094 " fill-opacity="1" fill-rule="nonzero"/><path fill="#01a84f" d="M 1109.859375 188.398438 L 1111.554688 0.0117188 L 1113.242188 188.398438 L 1109.859375 188.398438 " fill-opacity="1" fill-rule="nonzero"/><path fill="#01a84f" d="M 980.183594 186.925781 L 1045.445312 149.25 L 1047.144531 152.183594 L 981.878906 189.859375 L 980.183594 186.925781 " fill-opacity="1" fill-rule="nonzero"/><path fill="#01a84f" d="M 784.421875 149.25 L 850.519531 111.089844 C 872.824219 123.984375 895.152344 136.871094 917.46875 149.742188 L 917.46875 227.039062 C 895.164062 239.933594 872.835938 252.808594 850.519531 265.703125 C 828.203125 252.816406 805.882812 239.921875 783.566406 227.039062 L 783.566406 149.742188 Z M 850.519531 114.980469 L 786.953125 151.6875 L 786.953125 225.105469 L 850.519531 261.800781 L 914.085938 225.09375 L 914.085938 151.6875 L 850.519531 114.980469 " fill-opacity="1" fill-rule="nonzero"/><path fill="#01a84f" d="M 914.941406 227.53125 L 848.832031 189.363281 L 848.832031 113.035156 L 852.203125 113.035156 L 852.203125 187.417969 L 916.613281 224.597656 L 914.941406 227.53125 " fill-opacity="1" fill-rule="nonzero"/><path fill="#01a84f" d="M 914.929688 149.25 L 981.035156 111.078125 C 1003.34375 123.976562 1025.660156 136.859375 1047.976562 149.734375 L 1047.976562 226.070312 L 1044.605469 226.070312 L 1044.605469 151.6875 L 981.035156 114.992188 L 916.625 152.171875 L 914.929688 149.25 " fill-opacity="1" fill-rule="nonzero"/><path fill="#01a84f" d="M 914.085938 150.710938 L 915.773438 0 L 917.46875 150.710938 L 914.085938 150.710938 " fill-opacity="1" fill-rule="nonzero"/><path fill="#01a84f" d="M 783.566406 150.710938 L 785.265625 0.0117188 L 786.953125 150.710938 L 783.566406 150.710938 " fill-opacity="1" fill-rule="nonzero"/><path fill="#01a84f" d="M 786.953125 226.070312 L 786.953125 375.804688 L 850.519531 412.5 L 914.085938 375.804688 L 914.085938 301.421875 L 917.46875 301.421875 L 917.46875 377.75 L 850.519531 416.414062 C 828.203125 403.527344 805.871094 390.65625 783.578125 377.761719 L 783.566406 226.070312 L 786.953125 226.070312 " fill-opacity="1" fill-rule="nonzero"/><path fill="#01a84f" d="M 914.941406 378.242188 L 849.675781 340.570312 L 851.363281 337.632812 L 916.613281 375.308594 L 914.941406 378.242188 " fill-opacity="1" fill-rule="nonzero"/><path fill="#01a84f" d="M 784.421875 375.308594 L 849.675781 337.632812 L 851.363281 340.570312 L 786.109375 378.242188 L 784.421875 375.308594 " fill-opacity="1" fill-rule="nonzero"/><path fill="#01a84f" d="M 849.675781 337.632812 L 914.929688 299.960938 L 916.625 302.894531 L 851.363281 340.570312 L 849.675781 337.632812 " fill-opacity="1" fill-rule="nonzero"/><path fill="#01a84f" d="M 848.832031 339.105469 L 848.832031 263.746094 L 852.203125 263.746094 L 852.203125 339.105469 L 848.832031 339.105469 " fill-opacity="1" fill-rule="nonzero"/><path fill="#01a84f" d="M 656.433594 376.78125 L 656.433594 451.164062 L 720 487.863281 L 783.566406 451.164062 L 783.566406 376.78125 L 786.953125 376.78125 L 786.953125 453.109375 C 764.644531 465.992188 742.328125 478.890625 720 491.761719 C 697.671875 478.890625 675.367188 465.992188 653.046875 453.109375 L 653.046875 376.78125 L 656.433594 376.78125 " fill-opacity="1" fill-rule="nonzero"/><path fill="#01a84f" d="M 653.890625 450.671875 L 719.15625 412.996094 L 720.855469 415.929688 L 655.589844 453.605469 L 653.890625 450.671875 " fill-opacity="1" fill-rule="nonzero"/><path fill="#01a84f" d="M 784.410156 453.605469 L 719.15625 415.929688 L 720.855469 412.996094 L 786.109375 450.671875 L 784.410156 453.605469 " fill-opacity="1" fill-rule="nonzero"/><path fill="#01a84f" d="M 719.15625 415.929688 L 653.902344 378.242188 L 655.578125 375.308594 L 720.84375 412.996094 L 719.15625 415.929688 " fill-opacity="1" fill-rule="nonzero"/><path fill="#01a84f" d="M 719.15625 412.996094 L 784.421875 375.308594 L 786.109375 378.242188 L 720.84375 415.929688 L 719.15625 412.996094 " fill-opacity="1" fill-rule="nonzero"/><path fill="#01a84f" d="M 718.3125 414.457031 L 718.3125 339.105469 L 721.6875 339.105469 L 721.699219 414.457031 L 718.3125 414.457031 " fill-opacity="1" fill-rule="nonzero"/><path fill="#01a84f" d="M 591.167969 339.105469 L 591.167969 488.839844 L 654.734375 525.535156 L 719.15625 488.34375 L 720.84375 491.28125 L 654.734375 529.4375 C 632.417969 516.566406 610.101562 503.679688 587.785156 490.785156 L 587.796875 339.105469 L 591.167969 339.105469 " fill-opacity="1" fill-rule="nonzero"/><path fill="#01a84f" d="M 588.628906 488.34375 L 653.890625 450.671875 L 655.589844 453.605469 L 590.324219 491.28125 L 588.628906 488.34375 " fill-opacity="1" fill-rule="nonzero"/><path fill="#01a84f" d="M 720.84375 340.570312 L 653.046875 379.707031 C 653.039062 353.285156 653.027344 326.875 653.046875 300.453125 L 721.699219 260.8125 L 721.699219 340.074219 Z M 656.433594 373.859375 L 718.300781 338.140625 L 718.300781 266.679688 L 656.433594 302.398438 L 656.433594 373.859375 " fill-opacity="1" fill-rule="nonzero"/><path fill="#01a84f" d="M 719.15625 337.632812 L 784.421875 299.960938 L 786.109375 302.894531 L 720.84375 340.570312 L 719.15625 337.632812 " fill-opacity="1" fill-rule="nonzero"/><path fill="#01a84f" d="M 784.410156 302.894531 L 719.15625 265.21875 L 720.855469 262.285156 L 786.109375 299.960938 L 784.410156 302.894531 " fill-opacity="1" fill-rule="nonzero"/><path fill="#01a84f" d="M 719.15625 262.285156 L 784.421875 224.609375 L 786.109375 227.53125 L 720.84375 265.21875 L 719.15625 262.285156 " fill-opacity="1" fill-rule="nonzero"/><path fill="#01a84f" d="M 784.410156 227.53125 L 719.15625 189.859375 L 720.855469 186.925781 L 786.109375 224.597656 L 784.410156 227.53125 " fill-opacity="1" fill-rule="nonzero"/><path fill="#01a84f" d="M 719.15625 186.925781 L 784.421875 149.25 L 786.097656 152.171875 L 720.84375 189.859375 L 719.15625 186.925781 " fill-opacity="1" fill-rule="nonzero"/><path fill="#01a84f" d="M 718.3125 263.746094 L 718.3125 188.398438 L 721.6875 188.398438 L 721.6875 263.746094 L 718.3125 263.746094 " fill-opacity="1" fill-rule="nonzero"/><path fill="#01a84f" d="M 653.046875 226.070312 L 654.734375 0.0117188 L 656.433594 226.070312 L 654.667969 227.464844 L 653.046875 226.070312 " fill-opacity="1" fill-rule="nonzero"/><path fill="#01a84f" d="M 718.3125 188.398438 L 720 0 L 721.6875 188.386719 L 719.855469 189.890625 L 718.3125 188.398438 " fill-opacity="1" fill-rule="nonzero"/><path fill="#01a84f" d="M 653.890625 378.242188 L 588.628906 340.570312 L 590.335938 337.632812 L 655.589844 375.308594 L 653.890625 378.242188 " fill-opacity="1" fill-rule="nonzero"/><path fill="#01a84f" d="M 588.628906 337.632812 L 653.890625 299.960938 L 655.589844 302.894531 L 590.335938 340.570312 L 588.628906 337.632812 " fill-opacity="1" fill-rule="nonzero"/><path fill="#01a84f" d="M 462.347656 339.105469 L 524.226562 374.824219 L 586.109375 339.105469 L 524.226562 303.378906 Z M 523.386719 378.242188 L 455.589844 339.097656 L 524.226562 299.476562 C 547.097656 312.699219 569.988281 325.898438 592.867188 339.097656 L 524.226562 378.726562 L 523.386719 378.242188 " fill-opacity="1" fill-rule="nonzero"/><path fill="#01a84f" d="M 587.796875 339.105469 L 587.785156 113.035156 L 591.167969 113.035156 L 591.167969 339.105469 L 587.796875 339.105469 " fill-opacity="1" fill-rule="nonzero"/><path fill="#01a84f" d="M 457.277344 339.105469 L 457.277344 113.046875 L 460.648438 113.046875 L 460.660156 339.105469 L 457.277344 339.105469 " fill-opacity="1" fill-rule="nonzero"/><path fill="#01a84f" d="M 653.890625 302.894531 L 588.628906 265.21875 L 590.335938 262.285156 L 655.589844 299.960938 L 653.890625 302.894531 " fill-opacity="1" fill-rule="nonzero"/><path fill="#01a84f" d="M 523.386719 299.960938 L 588.636719 262.285156 L 590.324219 265.21875 L 525.058594 302.894531 L 523.386719 299.960938 " fill-opacity="1" fill-rule="nonzero"/><path fill="#01a84f" d="M 588.636719 262.285156 L 653.902344 224.609375 L 655.578125 227.53125 L 590.324219 265.21875 L 588.636719 262.285156 " fill-opacity="1" fill-rule="nonzero"/><path fill="#01a84f" d="M 588.636719 265.21875 L 458.121094 189.859375 L 459.804688 186.925781 L 590.324219 262.285156 L 588.636719 265.21875 " fill-opacity="1" fill-rule="nonzero"/><path fill="#01a84f" d="M 458.121094 186.925781 L 588.636719 111.574219 L 590.324219 114.496094 L 459.804688 189.859375 L 458.121094 186.925781 " fill-opacity="1" fill-rule="nonzero"/><path fill="#01a84f" d="M 459.804688 415.929688 L 393.710938 454.089844 C 371.382812 441.214844 349.0625 428.332031 326.757812 415.433594 C 326.714844 363.898438 326.757812 312.359375 326.757812 260.824219 C 371.394531 286.589844 416.015625 312.394531 460.660156 338.128906 L 460.660156 415.433594 Z M 393.710938 450.1875 L 457.277344 413.488281 L 457.277344 340.074219 L 330.132812 266.667969 L 330.132812 413.480469 L 393.710938 450.1875 " fill-opacity="1" fill-rule="nonzero"/><path fill="#01a84f" d="M 327.601562 412.996094 L 392.867188 375.308594 L 394.554688 378.242188 L 329.289062 415.929688 L 327.601562 412.996094 " fill-opacity="1" fill-rule="nonzero"/><path fill="#01a84f" d="M 458.121094 415.929688 L 392.867188 378.242188 L 394.554688 375.308594 L 459.816406 412.996094 L 458.121094 415.929688 " fill-opacity="1" fill-rule="nonzero"/><path fill="#01a84f" d="M 392.023438 376.78125 L 392.023438 301.421875 L 395.394531 301.421875 L 395.394531 376.78125 L 392.023438 376.78125 " fill-opacity="1" fill-rule="nonzero"/><path fill="#01a84f" d="M 327.601562 262.285156 L 458.121094 186.925781 L 459.816406 189.859375 L 329.300781 265.21875 L 327.601562 262.285156 " fill-opacity="1" fill-rule="nonzero"/><path fill="#01a84f" d="M 392.023438 301.421875 L 392.023438 226.070312 L 395.394531 226.070312 L 395.394531 301.421875 L 392.023438 301.421875 " fill-opacity="1" fill-rule="nonzero"/><path fill="#01a84f" d="M 392.023438 226.070312 L 392.023438 150.722656 L 395.394531 150.722656 L 395.394531 226.070312 L 392.023438 226.070312 " fill-opacity="1" fill-rule="nonzero"/><path fill="#01a84f" d="M 392.855469 149.25 L 458.121094 111.574219 L 459.816406 114.496094 L 394.554688 152.183594 L 392.855469 149.25 " fill-opacity="1" fill-rule="nonzero"/><path fill="#01a84f" d="M 327.601562 186.925781 L 392.867188 149.25 L 394.554688 152.183594 L 329.289062 189.859375 L 327.601562 186.925781 " fill-opacity="1" fill-rule="nonzero"/><path fill="#01a84f" d="M 326.757812 263.746094 L 326.757812 113.035156 L 330.132812 113.035156 L 330.132812 263.746094 L 326.757812 263.746094 " fill-opacity="1" fill-rule="nonzero"/><path fill="#01a84f" d="M 392.023438 150.722656 L 393.710938 0.0117188 L 395.394531 150.722656 L 392.023438 150.722656 " fill-opacity="1" fill-rule="nonzero"/><path fill="#01a84f" d="M 199.625 339.105469 L 199.625 413.488281 L 263.179688 450.1875 L 327.601562 412.996094 L 329.289062 415.929688 L 263.179688 454.089844 C 240.863281 441.214844 218.558594 428.320312 196.238281 415.433594 L 196.238281 339.105469 L 199.625 339.105469 " fill-opacity="1" fill-rule="nonzero"/><path fill="#01a84f" d="M 134.359375 301.421875 L 134.359375 451.164062 L 197.925781 487.863281 L 262.347656 450.671875 L 264.035156 453.605469 L 197.925781 491.761719 L 130.976562 453.109375 L 130.976562 301.421875 L 134.359375 301.421875 " fill-opacity="1" fill-rule="nonzero"/><g clip-path="url(#562c0e1347)"><path fill="#01a84f" d="M 3.839844 526.515625 L 67.417969 563.222656 L 130.976562 526.527344 L 130.976562 452.132812 L 134.371094 452.132812 L 134.371094 528.460938 C 112.042969 541.355469 89.738281 554.238281 67.417969 567.113281 C 46.777344 555.21875 21.078125 540.386719 0.457031 528.460938 L 0.457031 300.464844 L 131.828125 224.597656 L 133.515625 227.53125 L 3.839844 302.410156 L 3.839844 526.515625 " fill-opacity="1" fill-rule="nonzero"/></g><path fill="#01a84f" d="M 2.929688 525.085938 L 66.566406 488.355469 L 68.25 491.28125 L 2.929688 529 L 2.929688 525.085938 " fill-opacity="1" fill-rule="nonzero"/><path fill="#01a84f" d="M 131.828125 528.953125 L 66.566406 491.28125 L 68.25 488.355469 L 133.503906 526.019531 L 131.828125 528.953125 " fill-opacity="1" fill-rule="nonzero"/><path fill="#01a84f" d="M 65.722656 489.816406 L 65.722656 414.457031 L 69.09375 414.457031 L 69.09375 489.816406 L 65.722656 489.816406 " fill-opacity="1" fill-rule="nonzero"/><path fill="#01a84f" d="M 327.601562 415.929688 L 197.082031 340.570312 L 198.78125 337.632812 L 329.300781 412.996094 L 327.601562 415.929688 " fill-opacity="1" fill-rule="nonzero"/><path fill="#01a84f" d="M 131.828125 450.671875 L 262.335938 375.308594 L 264.035156 378.242188 L 133.515625 453.605469 L 131.828125 450.671875 " fill-opacity="1" fill-rule="nonzero"/><path fill="#01a84f" d="M 261.492188 376.769531 L 261.492188 301.421875 L 264.867188 301.421875 L 264.878906 376.769531 L 261.492188 376.769531 " fill-opacity="1" fill-rule="nonzero"/><path fill="#01a84f" d="M 197.082031 337.632812 L 327.601562 262.285156 L 329.300781 265.207031 L 198.78125 340.570312 L 197.082031 337.632812 " fill-opacity="1" fill-rule="nonzero"/><path fill="#01a84f" d="M 327.601562 265.207031 L 197.082031 189.859375 L 198.78125 186.925781 L 329.300781 262.285156 L 327.601562 265.207031 " fill-opacity="1" fill-rule="nonzero"/><path fill="#01a84f" d="M 196.238281 339.105469 L 196.238281 188.398438 L 199.625 188.398438 L 199.625 339.105469 L 196.238281 339.105469 " fill-opacity="1" fill-rule="nonzero"/><path fill="#01a84f" d="M 262.335938 224.609375 L 327.601562 186.925781 L 329.289062 189.859375 L 264.035156 227.53125 L 262.335938 224.609375 " fill-opacity="1" fill-rule="nonzero"/><path fill="#01a84f" d="M 261.492188 301.421875 L 261.492188 226.070312 L 264.867188 226.070312 L 264.867188 301.421875 L 261.492188 301.421875 " fill-opacity="1" fill-rule="nonzero"/><path fill="#01a84f" d="M 197.082031 186.925781 L 328.445312 111.089844 L 459.816406 186.925781 L 458.121094 189.859375 L 328.445312 114.992188 L 198.78125 189.859375 L 197.082031 186.925781 " fill-opacity="1" fill-rule="nonzero"/><path fill="#01a84f" d="M 261.492188 226.070312 L 261.492188 150.710938 L 264.867188 150.710938 L 264.867188 226.070312 L 261.492188 226.070312 " fill-opacity="1" fill-rule="nonzero"/><path fill="#01a84f" d="M 197.082031 415.929688 L 131.828125 378.242188 L 133.515625 375.308594 L 198.78125 412.996094 L 197.082031 415.929688 " fill-opacity="1" fill-rule="nonzero"/><path fill="#01a84f" d="M 66.566406 488.355469 L 131.828125 450.671875 L 133.503906 453.605469 L 68.25 491.28125 L 66.566406 488.355469 " fill-opacity="1" fill-rule="nonzero"/><path fill="#01a84f" d="M 66.566406 412.996094 L 131.828125 375.308594 L 133.515625 378.242188 L 68.261719 415.929688 L 66.566406 412.996094 " fill-opacity="1" fill-rule="nonzero"/><path fill="#01a84f" d="M 66.566406 415.929688 L 2.121094 378.714844 L 2.121094 374.816406 L 68.25 412.996094 L 66.566406 415.929688 " fill-opacity="1" fill-rule="nonzero"/><path fill="#01a84f" d="M 131.828125 378.242188 L 2.929688 303.828125 L 2.929688 299.925781 L 133.515625 375.308594 L 131.828125 378.242188 " fill-opacity="1" fill-rule="nonzero"/><path fill="#01a84f" d="M 131.828125 299.960938 L 197.082031 262.285156 L 198.78125 265.21875 L 133.515625 302.894531 L 131.828125 299.960938 " fill-opacity="1" fill-rule="nonzero"/><path fill="#01a84f" d="M 130.976562 301.421875 L 130.976562 150.710938 L 134.359375 150.710938 L 134.359375 301.421875 L 130.976562 301.421875 " fill-opacity="1" fill-rule="nonzero"/><path fill="#01a84f" d="M 197.082031 265.21875 L 131.828125 227.53125 L 133.515625 224.609375 L 198.78125 262.285156 L 197.082031 265.21875 " fill-opacity="1" fill-rule="nonzero"/><path fill="#01a84f" d="M 131.828125 224.609375 L 197.082031 186.925781 L 198.78125 189.859375 L 133.515625 227.53125 L 131.828125 224.609375 " fill-opacity="1" fill-rule="nonzero"/><path fill="#01a84f" d="M 65.722656 339.105469 L 65.722656 263.746094 L 69.105469 263.746094 L 69.105469 339.105469 L 65.722656 339.105469 " fill-opacity="1" fill-rule="nonzero"/><path fill="#01a84f" d="M 65.722656 263.746094 L 65.722656 188.398438 L 69.09375 188.398438 L 69.105469 263.746094 L 65.722656 263.746094 " fill-opacity="1" fill-rule="nonzero"/><path fill="#01a84f" d="M 131.828125 227.53125 L 0.457031 151.6875 L 2.144531 0 L 3.820312 149.722656 L 133.515625 224.597656 L 131.828125 227.53125 " fill-opacity="1" fill-rule="nonzero"/><path fill="#01a84f" d="M 66.566406 186.925781 L 131.828125 149.25 L 133.515625 152.183594 L 68.261719 189.859375 L 66.566406 186.925781 " fill-opacity="1" fill-rule="nonzero"/><path fill="#01a84f" d="M 1175.121094 150.710938 L 1176.808594 0.0117188 L 1178.507812 150.710938 L 1176.582031 151.96875 L 1175.121094 150.710938 " fill-opacity="1" fill-rule="nonzero"/><path fill="#01a84f" d="M 653.046875 301.421875 L 653.046875 226.070312 L 656.433594 226.070312 L 656.433594 301.421875 L 653.046875 301.421875 " fill-opacity="1" fill-rule="nonzero"/><path fill="#01a84f" d="M 587.785156 113.035156 L 589.480469 0.0117188 L 591.167969 113.035156 L 589.460938 114.316406 L 587.785156 113.035156 " fill-opacity="1" fill-rule="nonzero"/><path fill="#01a84f" d="M 457.277344 113.046875 L 458.964844 0.0117188 L 460.648438 113.046875 L 458.851562 114.171875 L 457.277344 113.046875 " fill-opacity="1" fill-rule="nonzero"/><path fill="#01a84f" d="M 196.238281 188.398438 L 197.925781 0.0117188 L 199.625 188.398438 L 196.238281 188.398438 " fill-opacity="1" fill-rule="nonzero"/><path fill="#01a84f" d="M 130.976562 150.710938 L 132.671875 0.0117188 L 134.359375 150.710938 L 132.539062 152.117188 L 130.976562 150.710938 " fill-opacity="1" fill-rule="nonzero"/><path fill="#01a84f" d="M 65.722656 188.398438 L 67.417969 0.0117188 L 69.09375 188.398438 L 65.722656 188.398438 " fill-opacity="1" fill-rule="nonzero"/><path fill="#01a84f" d="M 1439.542969 302.386719 C 1418.914062 314.292969 1393.222656 329.144531 1372.59375 341.050781 C 1350.261719 328.179688 1327.945312 315.292969 1305.640625 302.386719 C 1305.617188 276.628906 1305.617188 250.863281 1305.640625 225.09375 L 1306.484375 224.597656 L 1372.59375 186.441406 C 1393.210938 198.359375 1418.914062 213.199219 1439.542969 225.09375 C 1439.542969 250.863281 1439.542969 276.628906 1439.542969 302.386719 Z M 1436.148438 300.453125 L 1436.148438 227.039062 L 1372.59375 190.339844 L 1309.023438 227.050781 L 1309.023438 300.453125 L 1372.59375 337.152344 L 1436.148438 300.453125 " fill-opacity="1" fill-rule="evenodd"/></svg>